# xmcd CD database file generated by Grip 2.96
# 
# Track frame offsets:
#       150
#       11872
#       27422
#       46585
#       62837
#       81565
#       101430
#       129430
#       153722
#       163640
#       174727
#       188365
#       226170
#       241420
#       262032
#       293012
#       317135
# 
# Disc length: 4514 seconds
# 
# Revision: 0
# Processed by: cddbd v1.4PL0 Copyright (c) Steve Scherf et al.
# Submitted via: Grip 2.96
# 
DISCID=e311a011
DTITLE=Captain Beefheart - Don's Birthday Party
DYEAR=1900
DGENRE=
TTITLE0=Suction Prints (Intro Version)
TTITLE1=My Human Gets Me Blues
TTITLE2=Nowadays A Woman's Got To Hit A Man
TTITLE3=Hot Head
TTITLE4=Ashtray Heart
TTITLE5=Dirty Blue Gene
TTITLE6=Best Batch Yet
TTITLE7=Safe As Milk
TTITLE8=A Carrot Is As Close As A Rabbit Gets To A Diamond
TTITLE9=One Red Rose That I Mean
TTITLE10=Dr. Dark
TTITLE11=Bat Chain Puller
TTITLE12=Sugar 'n Spikes
TTITLE13=Veteran's Day Poppy
TTITLE14=Sheriff Of Hong Kong
TTITLE15=Suction Prints (Full Band Version)
TTITLE16=Big Eyes Beans From Venus
EXTD=
EXTT0=
EXTT1=
EXTT2=
EXTT3=
EXTT4=
EXTT5=
EXTT6=
EXTT7=
EXTT8=
EXTT9=
EXTT10=
EXTT11=
EXTT12=
EXTT13=
EXTT14=
EXTT15=
EXTT16=
PLAYORDER=
